<?xml version="1.0" standalone="no"?>
<!DOCTYPE svg PUBLIC "-//W3C//DTD SVG 20010904//EN"
 "http://www.w3.org/TR/2001/REC-SVG-20010904/DTD/svg10.dtd">
<svg version="1.0" xmlns="http://www.w3.org/2000/svg"
 width="260.000000pt" height="260.000000pt" viewBox="0 0 260.000000 260.000000"
 preserveAspectRatio="xMidYMid meet">
<metadata>
Created by potrace 1.14, written by Peter Selinger 2001-2017
</metadata>
<g transform="translate(0.000000,260.000000) scale(0.100000,-0.100000)"
fill="#000000" stroke="none">
<path d="M1417 2523 c-9 -2 -15 -9 -12 -14 4 -5 -1 -9 -9 -9 -10 0 -13 -6 -9
-17 4 -11 3 -14 -5 -9 -7 4 -13 1 -13 -8 -1 -9 -2 -21 -3 -27 0 -7 -12 -16
-26 -21 -13 -5 -21 -6 -18 -3 9 9 -32 55 -49 55 -7 0 -13 4 -13 9 0 9 -8 9
-68 -3 -26 -6 -81 -46 -62 -46 10 0 10 -3 0 -15 -9 -11 -9 -15 -1 -15 7 0 9
-4 6 -10 -3 -5 -22 -10 -40 -10 -25 0 -33 4 -29 14 3 8 -3 16 -16 19 -14 4
-19 10 -14 18 4 8 3 10 -4 5 -7 -4 -12 -2 -12 5 0 7 -3 10 -6 6 -4 -3 -13 0
-21 8 -11 12 -19 12 -35 4 -15 -8 -19 -8 -14 0 10 15 -7 14 -22 -1 -9 -9 -12
-9 -12 2 0 12 -2 12 -9 2 -4 -8 -11 -13 -15 -13 -20 3 -26 -1 -26 -15 0 -8 -4
-12 -10 -9 -5 3 -10 -1 -10 -9 0 -9 -4 -16 -8 -16 -10 0 -11 -6 -16 -73 -2
-39 1 -51 17 -62 23 -16 15 -35 -11 -28 -10 2 -24 -3 -31 -11 -8 -9 -10 -16
-5 -16 16 0 -32 -29 -48 -30 -10 0 -18 -5 -18 -11 0 -8 -5 -8 -15 1 -8 7 -15
9 -15 4 0 -5 -5 -2 -10 6 -6 10 -10 11 -10 3 0 -9 -7 -10 -25 -3 -16 6 -25 6
-25 0 0 -6 -9 -10 -20 -10 -11 0 -20 -5 -20 -11 0 -5 -5 -7 -12 -3 -7 5 -9 2
-5 -8 3 -10 -1 -18 -12 -21 -19 -5 -28 -71 -13 -91 6 -6 13 -25 16 -42 6 -25
2 -36 -18 -55 -14 -13 -26 -30 -26 -37 0 -12 -4 -22 -28 -68 -5 -11 -7 -26 -2
-33 7 -12 -1 -36 -33 -100 -7 -15 -23 -26 -41 -28 -31 -4 -88 -42 -80 -54 2
-4 0 -10 -6 -14 -6 -4 -8 -11 -5 -16 4 -5 1 -9 -6 -9 -9 0 -9 -3 0 -14 8 -9 8
-15 2 -18 -6 -1 2 -23 17 -47 23 -37 36 -46 72 -55 28 -7 44 -17 46 -28 4 -32
37 -108 45 -108 5 0 9 -8 9 -17 1 -21 42 -77 111 -151 l51 -54 -36 -35 c-33
-32 -38 -40 -35 -59 0 -4 -5 -11 -13 -15 -10 -7 -10 -9 0 -9 8 0 10 -5 5 -12
-24 -40 40 -124 102 -133 6 -1 12 -3 15 -4 19 -9 53 -6 57 6 3 7 9 11 13 8 4
-3 10 2 14 10 3 8 10 15 16 15 6 0 8 -5 5 -10 -4 -6 -2 -16 3 -23 5 -7 13 -23
17 -37 4 -14 15 -32 24 -40 9 -8 17 -26 19 -40 1 -14 14 -41 27 -60 14 -20 25
-41 25 -48 0 -7 5 -12 10 -12 12 0 70 -50 70 -61 0 -17 -162 -167 -188 -174
-15 -3 -36 -15 -47 -25 -12 -11 -39 -22 -60 -25 -82 -12 -257 -77 -295 -110
-21 -18 -113 -65 -136 -69 -71 -14 -103 -27 -97 -42 5 -13 147 -15 1214 -14
730 1 1209 5 1209 11 0 5 -24 37 -53 71 -86 102 -235 167 -390 173 -34 1 -73
6 -87 11 -14 4 -42 8 -62 9 -33 0 -45 8 -88 54 -48 49 -50 54 -33 67 10 7 24
14 32 14 15 0 67 51 64 61 -1 4 2 22 8 40 6 19 12 46 14 62 2 15 10 34 17 42
32 36 37 45 41 88 3 25 13 56 21 69 9 14 13 28 9 31 -10 11 26 8 48 -3 50 -27
147 28 152 88 2 17 6 35 10 38 6 6 -9 37 -32 66 -12 15 -8 23 36 65 27 26 52
56 56 65 3 10 10 18 15 18 5 0 15 14 22 30 7 17 16 30 21 30 5 0 9 7 9 15 0 8
4 23 9 33 18 36 31 68 41 109 6 25 18 44 29 48 22 7 41 46 41 87 0 23 -10 41
-40 69 -22 21 -40 43 -40 49 0 22 -61 136 -100 188 -22 29 -40 60 -40 70 -1
22 -25 54 -34 45 -4 -4 -4 0 -1 9 9 22 -23 38 -74 38 -43 0 -51 9 -26 30 28
23 74 99 64 105 -5 4 -9 15 -9 26 0 11 -11 37 -25 57 -14 20 -25 32 -25 27 0
-6 -4 -4 -9 4 -14 21 -110 19 -126 -2 -7 -9 -14 -14 -18 -11 -3 3 -8 -4 -12
-15 -8 -25 -37 -28 -55 -6 -7 9 -19 14 -25 11 -19 -7 -33 34 -29 82 2 30 -2
45 -12 49 -7 3 -12 8 -10 12 11 17 -31 52 -64 53 -66 2 -80 -2 -116 -37 -36
-36 -57 -42 -83 -26 -13 8 -13 12 0 27 11 14 11 16 0 10 -10 -7 -12 -4 -7 12
4 11 2 23 -3 26 -6 4 -8 13 -5 21 10 24 -48 45 -123 44 -37 -1 -76 -3 -86 -6z"/>
</g>
</svg>
